<svg width="54" height="41" viewBox="0 0 54 41" fill="none" xmlns="http://www.w3.org/2000/svg">
<g clip-path="url(#clip0_17_2)">
<mask id="mask0_17_2" style="mask-type:luminance" maskUnits="userSpaceOnUse" x="0" y="0" width="54" height="41">
<path d="M53.3993 0.5H0.600586V40.5H53.3993V0.5Z" fill="white"/>
</mask>
<g mask="url(#mask0_17_2)">
<path d="M19.9718 18.7251C20.8072 16.9892 21.6451 15.2543 22.477 13.5167C23.3315 11.7305 24.1573 9.93038 25.0413 8.1598C25.4946 7.25063 25.6821 6.32148 25.6283 5.31593C25.4676 2.3418 23.0015 0.198702 20.0604 0.570359C17.5899 0.882967 15.8445 2.29665 14.7044 4.45017C13.9619 5.8517 13.3254 7.30881 12.6481 8.7442C12.0211 10.0736 11.3412 11.3788 10.7811 12.7395C10.7134 12.8663 10.6405 12.9913 10.5788 13.1207C8.95497 16.516 7.3242 19.9078 5.71339 23.3083C4.16598 26.5733 2.64201 29.8496 1.10155 33.1181C0.683001 34.0064 0.542327 34.933 0.623953 35.9047C0.857541 38.666 3.21774 40.6954 5.97043 40.4488C8.57463 40.2152 10.3747 38.7485 11.4697 36.4778C13.1769 32.9375 14.8502 29.379 16.5557 25.8378C17.6967 23.4681 18.8334 21.0957 19.9718 18.7251Z" fill="#14B8A6"/>
<path d="M52.708 32.5849C51.6851 30.5009 50.6969 28.3986 49.6939 26.305C49.3032 25.4896 48.9098 24.6751 48.5182 23.8605C47.8652 22.4807 47.2165 21.0983 46.5592 19.7202C44.6939 15.8135 42.8244 11.9094 40.9565 8.00436C40.4103 6.8616 39.8511 5.72405 39.3214 4.57348C38.6311 3.0747 37.5804 1.91284 36.1207 1.14521C34.0132 0.0363127 31.6026 0.381051 29.938 1.99967C28.3662 3.52711 27.9789 5.85518 28.9515 7.87845C31.5132 13.211 34.0679 18.5462 36.6312 23.877C37.464 25.6086 38.3141 27.3314 39.1564 29.0585C39.166 29.1002 39.1677 29.1462 39.186 29.1844C40.3886 31.7313 41.56 34.2939 42.8079 36.8182C43.5859 38.3925 44.8407 39.5153 46.5062 40.1214C49.3084 41.1417 52.2269 39.8183 53.1109 37.1282C53.625 35.5634 53.4305 34.0568 52.708 32.5849Z" fill="#14B8A6"/>
</g>
<path d="M32.8446 25.2917C32.0392 25.2732 31.2334 25.2413 30.428 25.2152C30.1143 25.2051 29.8005 25.1959 29.4869 25.1862C28.9574 25.1666 28.4277 25.1453 27.898 25.1272C26.3962 25.0767 24.8945 25.0278 23.3927 24.9784C22.9533 24.9638 22.5135 24.9539 22.0743 24.9331C21.502 24.906 20.9782 25.042 20.5132 25.365C19.8415 25.8313 19.5736 26.6201 19.8168 27.3834C20.0462 28.1041 20.7082 28.5907 21.487 28.6149C23.5394 28.6791 25.5916 28.7459 27.6437 28.8093C28.3103 28.8299 28.9769 28.8438 29.6436 28.8607C29.658 28.8644 29.6726 28.8712 29.6873 28.8717C30.6643 28.9087 31.6413 28.9577 32.6184 28.9774C33.2277 28.9898 33.7711 28.7854 34.2181 28.3741C34.9703 27.6822 35.0136 26.5837 34.3166 25.8885C33.9111 25.4841 33.4136 25.3047 32.8446 25.2917Z" fill="#14B8A6"/>
<path d="M30.216 32.1668C29.7339 32.1557 29.2517 32.1366 28.7697 32.121C28.582 32.115 28.3942 32.1095 28.2066 32.1037C27.8897 32.0919 27.5727 32.0792 27.2557 32.0684C26.3569 32.0381 25.4582 32.0089 24.5594 31.9793C24.2965 31.9705 24.0333 31.9647 23.7704 31.9522C23.4279 31.936 23.1145 32.0174 22.8362 32.2107C22.4342 32.4898 22.2739 32.9618 22.4194 33.4186C22.5567 33.8499 22.9528 34.1411 23.4189 34.1556C24.6472 34.194 25.8754 34.234 27.1035 34.272C27.5024 34.2843 27.9013 34.2926 28.3003 34.3027C28.3089 34.3049 28.3176 34.309 28.3264 34.3093C28.9111 34.3314 29.4959 34.3608 30.0806 34.3725C30.4452 34.3799 30.7704 34.2576 31.0379 34.0115C31.4881 33.5974 31.514 32.94 31.0969 32.5239C30.8542 32.2819 30.5565 32.1746 30.216 32.1668Z" fill="#14B8A6"/>
<path d="M35.6797 15.9475C34.4675 15.9257 33.2551 15.8834 32.0432 15.85C31.5711 15.8371 31.0989 15.8256 30.627 15.8132C29.8302 15.7875 29.0332 15.7592 28.2362 15.7359C25.9762 15.6707 23.7165 15.6081 21.4567 15.5445C20.7955 15.5257 20.1336 15.5142 19.4727 15.4859C18.6116 15.4492 17.8223 15.6594 17.1199 16.1527C16.1054 16.8647 15.6962 18.0626 16.0565 19.218C16.3963 20.3088 17.3888 21.0415 18.5607 21.0722C21.6492 21.1539 24.7373 21.2395 27.8253 21.3201C28.8284 21.3462 29.8316 21.3622 30.8348 21.3828C30.8565 21.3883 30.8783 21.3985 30.9005 21.3991C32.3706 21.4478 33.8407 21.5147 35.311 21.537C36.228 21.5511 37.0474 21.2371 37.7232 20.6102C38.8606 19.5555 38.9341 17.8898 37.8904 16.841C37.2833 16.2311 36.5358 15.963 35.6797 15.9475Z" fill="#14B8A6"/>
</g>
<defs>
<clipPath id="clip0_17_2">
<rect width="54" height="41" fill="white"/>
</clipPath>
</defs>
</svg>
